<svg xmlns="http://www.w3.org/2000/svg" xmlns:osb="http://www.openswatchbook.org/uri/2009/osb" xmlns:svg="http://www.w3.org/2000/svg" xmlns:xlink="http://www.w3.org/1999/xlink" id="svg2" width="744.094" height="524.409" version="1.1"><defs id="defs4"><linearGradient id="linearGradient5259" osb:paint="solid"><stop style="stop-color:#ff9600;stop-opacity:1" id="stop5261" offset="0"/></linearGradient><linearGradient id="linearGradient3803" osb:paint="solid"><stop style="stop-color:#000;stop-opacity:1" id="stop3805" offset="0"/></linearGradient><linearGradient id="linearGradient3797" osb:paint="solid"><stop style="stop-color:#000;stop-opacity:1" id="stop3799" offset="0"/></linearGradient><linearGradient id="linearGradient3791" osb:paint="solid"><stop style="stop-color:#000;stop-opacity:1" id="stop3793" offset="0"/></linearGradient><linearGradient id="linearGradient3785" osb:paint="solid"><stop style="stop-color:#000;stop-opacity:1" id="stop3787" offset="0"/></linearGradient><linearGradient id="linearGradient3779" osb:paint="solid"><stop style="stop-color:#000;stop-opacity:1" id="stop3781" offset="0"/></linearGradient><linearGradient id="linearGradient3783" x1="262.875" x2="510.526" y1="155.69" y2="155.69" gradientTransform="translate(25.714286,526.52416)" gradientUnits="userSpaceOnUse" xlink:href="#linearGradient3779"/><linearGradient id="linearGradient3795" x1="261.364" x2="315.529" y1="130.538" y2="130.538" gradientTransform="translate(25.714286,526.52416)" gradientUnits="userSpaceOnUse" xlink:href="#linearGradient3791"/><linearGradient id="linearGradient3801" x1="12.057" x2="261.567" y1="159.175" y2="159.175" gradientTransform="translate(25.714286,526.52416)" gradientUnits="userSpaceOnUse" xlink:href="#linearGradient3797"/><linearGradient id="linearGradient3807" x1="16.508" x2="514.205" y1="367.933" y2="367.933" gradientTransform="translate(25.714286,526.52416)" gradientUnits="userSpaceOnUse" xlink:href="#linearGradient3803"/><linearGradient id="linearGradient5263" x1="262.504" x2="405.955" y1="133.697" y2="133.697" gradientTransform="translate(25.714286,526.52416)" gradientUnits="userSpaceOnUse" xlink:href="#linearGradient5259"/></defs><metadata id="metadata7"/><g id="layer1" transform="translate(0,-527.95273)"><path style="fill:none;stroke:#000;stroke-width:1;stroke-miterlimit:4;stroke-opacity:1;stroke-dasharray:none" id="path2989" d="m 515.17781,262.27484 a 252.03307,252.03307 0 1 1 -504.066131,0 252.03307,252.03307 0 1 1 504.066131,0 z" transform="translate(25.714286,526.52416)"/><path style="fill:none;stroke:#000;stroke-width:1.00074565px;stroke-linecap:butt;stroke-linejoin:miter;stroke-opacity:1" id="path3759" d="m 288.26394,536.98728 -2.02462,245.30849 251.05373,-34.323"/><path style="fill:none;stroke:#000;stroke-width:1.00248885px;stroke-linecap:butt;stroke-linejoin:miter;stroke-opacity:1" id="path3761" d="M 40.867818,835.01224 286.33334,782.22217 433.01111,582.01746"/><path style="fill:none;stroke:#000;stroke-width:.9991343px;stroke-linecap:butt;stroke-linejoin:miter;stroke-opacity:1" id="path3763" d="M 342.4562,542.70912 286.74068,782.03255"/><path style="fill:red;fill-opacity:1;stroke:url(#linearGradient3795);stroke-width:1.5;stroke-miterlimit:4;stroke-opacity:1;stroke-dasharray:none" id="path3769" d="m 287.1905,758.72826 c 0.13333,-10.1394 0.59908,-64.00579 1.035,-119.70307 0.43593,-55.69729 0.8873,-101.3657 1.00306,-101.48536 0.43102,-0.44554 23.45838,1.05208 31.00589,2.01652 8.04972,1.02861 20.56729,3.19514 21.00824,3.63609 0.20906,0.20907 -53.48964,231.98796 -54.08959,233.46603 -0.11275,0.27779 -0.0959,-7.7908 0.0374,-17.93021 z"/><path style="fill:url(#linearGradient5263);fill-opacity:1;stroke:#000;stroke-width:1.5;stroke-linecap:butt;stroke-linejoin:miter;stroke-miterlimit:4;stroke-opacity:1;stroke-dasharray:none" id="path3771" d="m 289.07469,775.64832 c 0.65297,-3.42894 53.92637,-231.78401 54.11807,-231.9757 0.29745,-0.29745 11.44758,2.55158 19.4681,4.97441 16.91377,5.10929 35.82812,13.33451 51.08982,22.21725 6.29076,3.6614 15.11934,9.17755 16.94148,10.58513 1.10626,0.85458 0.95324,1.0687 -69.88,97.78022 -39.04379,53.30807 -71.22209,97.15105 -71.50736,97.42884 -0.35318,0.34393 -0.4266,0.0217 -0.23011,-1.01015 z"/><path style="fill:#0f0;fill-opacity:1;stroke:url(#linearGradient3801);stroke-width:1.5;stroke-miterlimit:4;stroke-opacity:1;stroke-dasharray:none" id="path3773" d="m 40.509864,826.56803 c -1.620925,-11.09102 -2.078897,-15.98267 -2.56843,-27.43367 -0.405993,-9.49685 -0.05081,-26.09794 0.718606,-33.58757 3.822416,-37.20791 14.730961,-71.47209 32.479083,-102.01811 12.027389,-20.70015 24.722354,-37.03227 41.841577,-53.82933 20.72523,-20.3352 40.9859,-34.60757 66.94069,-47.15551 24.81634,-11.99755 49.98433,-19.46588 77.45688,-22.9845 8.25929,-1.05783 29.33709,-2.4069 29.83446,-1.90953 0.47698,0.47697 -1.67505,243.35597 -2.16014,243.7949 -0.23431,0.21201 -54.63332,12.02667 -120.8867,26.2548 -66.253389,14.22813 -120.933578,25.97785 -121.511541,26.1105 -0.992468,0.22777 -1.111592,-0.17452 -2.144485,-7.24198 z"/><path style="fill:#00a000;fill-opacity:1;stroke:url(#linearGradient3783);stroke-width:1.5;stroke-miterlimit:4;stroke-opacity:1;stroke-dasharray:none" id="path3775" d="m 288.77755,780.32027 c 0.26762,-0.34724 32.81747,-44.78132 72.33299,-98.74241 39.51553,-53.96108 72.00294,-98.11107 72.19425,-98.11107 0.19132,0 2.95519,1.95554 6.14194,4.34563 46.37042,34.77823 79.48555,84.66252 93.17558,140.35873 2.76262,11.23935 4.07293,18.36435 3.47585,18.90034 -0.41342,0.37112 -244.73039,33.9116 -246.86147,33.88981 -0.67881,-0.007 -0.8084,-0.18787 -0.45914,-0.64103 z"/><path style="fill:#b4dc00;fill-opacity:1;stroke:url(#linearGradient3807);stroke-width:1.5;stroke-linecap:round;stroke-miterlimit:4;stroke-opacity:1;stroke-dasharray:none" id="path3777" d="m 271.74713,1039.4885 c -16.13626,-1.0814 -34.79037,-4.3183 -50.76016,-8.8081 C 167.90521,1015.757 121.07878,983.63092 87.782437,939.29303 67.488544,912.26939 52.746853,880.97718 44.777378,848.00611 41.703423,835.28864 41.751821,835.65359 43.096296,835.3299 43.70898,835.1824 98.303935,823.42389 164.41842,809.19988 l 120.20816,-25.86183 126.01653,-17.27594 c 69.30909,-9.50176 126.08622,-17.22317 126.1714,-17.15868 0.33957,0.25706 1.6795,11.06407 2.37669,19.16874 1.33632,15.53462 0.78978,38.6971 -1.2752,54.04316 -7.20529,53.54675 -31.33261,103.0181 -69.18864,141.86635 -31.23465,32.05333 -69.41044,54.73162 -112.63249,66.90912 -26.01287,7.329 -56.66158,10.4531 -84.34774,8.5977 z"/><text style="font-size:14px;font-style:normal;font-weight:400;line-height:125%;letter-spacing:0;word-spacing:0;fill:#000;fill-opacity:1;stroke:none;font-family:Sans" id="text5265" x="295.714" y="562.528" xml:space="preserve"><tspan id="tspan5267" x="295.714" y="562.528" style="font-size:20px;font-weight:700;-inkscape-font-specification:Sans Bold">3%</tspan></text><text style="font-size:14px;font-style:normal;font-weight:400;line-height:125%;letter-spacing:0;word-spacing:0;fill:#000;fill-opacity:1;stroke:none;font-family:Sans" id="text5265-3" x="356.536" y="603.46" xml:space="preserve"><tspan id="tspan5267-1" x="356.536" y="603.46" style="font-size:20px;font-weight:700;-inkscape-font-specification:Sans Bold">6%</tspan></text><text style="font-size:14px;font-style:normal;font-weight:400;line-height:125%;letter-spacing:0;word-spacing:0;fill:#000;fill-opacity:1;stroke:none;font-family:Sans" id="text5265-1" x="454.819" y="678.928" xml:space="preserve"><tspan id="tspan5267-6" x="454.819" y="678.928" style="font-size:20px;font-weight:700;-inkscape-font-specification:Sans Bold">14%</tspan></text><text style="font-size:14px;font-style:normal;font-weight:400;line-height:125%;letter-spacing:0;word-spacing:0;fill:#000;fill-opacity:1;stroke:none;font-family:Sans" id="text5265-6" x="273.39" y="1027.499" xml:space="preserve"><tspan id="tspan5267-2" x="273.39" y="1027.499" style="font-size:20px;font-weight:700;-inkscape-font-specification:Sans Bold">48%</tspan></text><text style="font-size:14px;font-style:normal;font-weight:400;line-height:125%;letter-spacing:0;word-spacing:0;fill:#000;fill-opacity:1;stroke:none;font-family:Sans" id="text5265-39" x="81.247" y="669.642" xml:space="preserve"><tspan id="tspan5267-4" x="81.247" y="669.642" style="font-size:20px;font-weight:700;-inkscape-font-specification:Sans Bold">29%</tspan></text><text style="font-size:20px;font-style:normal;font-weight:700;line-height:125%;letter-spacing:0;word-spacing:0;fill:#000;fill-opacity:1;stroke:none;font-family:Sans;-inkscape-font-specification:Sans Bold" id="text5317" x="352.143" y="735.934" xml:space="preserve"><tspan id="tspan5319" x="352.143" y="735.934">Без изменений</tspan></text><text style="font-size:20px;font-style:normal;font-weight:700;line-height:125%;letter-spacing:0;word-spacing:0;fill:#000;fill-opacity:1;stroke:none;font-family:Sans;-inkscape-font-specification:Sans Bold" id="text5317-8" x="203.813" y="941.296" xml:space="preserve"><tspan id="tspan5319-4" x="203.813" y="941.296">Немного лучше</tspan></text><text style="font-size:20px;font-style:normal;font-weight:700;line-height:125%;letter-spacing:0;word-spacing:0;fill:#000;fill-opacity:1;stroke:none;font-family:Sans;-inkscape-font-specification:Sans Bold" id="text5317-4" x="43.099" y="774.153" xml:space="preserve"><tspan id="tspan5319-5" x="43.099" y="774.153">Значительно лучше</tspan></text><text style="font-size:20px;font-style:normal;font-weight:700;line-height:125%;letter-spacing:0;word-spacing:0;fill:#000;fill-opacity:1;stroke:none;font-family:Sans;-inkscape-font-specification:Sans Bold" id="text5317-48" x="550.459" y="614.312" xml:space="preserve"><tspan id="tspan5319-47" x="550.459" y="614.312">Немного хуже</tspan></text><text style="font-size:20px;font-style:normal;font-weight:700;line-height:125%;letter-spacing:0;word-spacing:0;fill:#000;fill-opacity:1;stroke:none;font-family:Sans;-inkscape-font-specification:Sans Bold" id="text5317-48-2" x="499.996" y="578.208" xml:space="preserve"><tspan id="tspan5319-47-0" x="499.996" y="578.208">Значительно хуже</tspan></text><path style="fill:none;stroke:#000;stroke-width:3.08601594;stroke-linecap:butt;stroke-linejoin:round;stroke-miterlimit:4;stroke-opacity:1;stroke-dasharray:none" id="path5387" d="m 545.09799,607.72915 -185.18849,0"/><path style="fill:none;stroke:#000;stroke-width:3.18513107;stroke-linecap:butt;stroke-linejoin:round;stroke-miterlimit:4;stroke-opacity:1;stroke-dasharray:none" id="path5387-8" d="m 495.29821,570.35351 -197.27515,0"/></g></svg>